# Blender 3.6.0
# www.blender.org
mtllib model.mtl
o Mesh_0
v 0.042810 -0.203272 -0.260585
v -0.003119 -0.286637 -0.266325
v 0.121972 -0.277996 -0.238668
v -0.004305 -0.183537 -0.282496
v -0.023274 -0.437860 -0.192966
v 0.098260 -0.369358 -0.163500
v -0.006036 -0.367722 -0.191974
v 0.089125 0.328291 -0.131449
v 0.051862 0.305364 -0.201960
v -0.055746 -0.334853 -0.145374
v 0.165467 -0.179839 -0.218872
v 0.053866 -0.252689 -0.134910
v 0.027853 -0.187587 -0.175348
v 0.042423 -0.194059 -0.159232
v 0.015306 0.487996 -0.113526
v 0.061975 -0.182562 -0.158946
v 0.040342 0.204483 -0.154931
v -0.006242 -0.228258 -0.134531
v -0.027019 0.175760 -0.105165
v -0.008462 0.032440 -0.121086
v -0.057168 -0.438612 -0.165757
v 0.056529 0.140604 -0.110409
v -0.076657 -0.402236 -0.105559
v 0.149890 -0.302158 -0.192584
v -0.002859 -0.132327 -0.141945
v -0.091037 -0.267244 -0.104648
v -0.035896 -0.764143 -0.105770
v -0.122292 -0.382564 -0.066006
v 0.061069 0.056351 -0.082441
v 0.102172 -0.439952 -0.143570
v 0.082393 -0.427466 -0.072893
v 0.047993 -0.496669 -0.053940
v -0.028128 -0.506191 -0.064343
v -0.000457 -0.438951 -0.088570
v 0.092754 -0.220382 -0.056584
v 0.025356 -0.657939 -0.056286
v 0.064298 -0.126602 -0.106720
v 0.012774 0.288804 -0.188923
v -0.002058 0.623092 0.000959
v -0.015926 -0.958094 -0.010207
v 0.104621 -0.280265 -0.097373
v 0.067517 -0.752231 -0.088995
v -0.076995 -0.149579 -0.018428
v -0.089492 -0.733608 -0.082787
v 0.070532 -0.449750 0.015612
v 0.113608 -0.385008 0.025043
v 0.107749 -0.373480 -0.063760
v -0.071065 0.111475 0.024225
v -0.030884 -0.653069 -0.063317
v 0.044410 -0.176035 0.050442
v -0.115800 -0.749268 0.007815
v -0.072000 -0.587936 0.008215
v -0.081565 -0.472947 -0.010525
v -0.044551 -0.659994 0.043648
v -0.054083 -0.500279 0.032341
v 0.098430 -0.321926 0.075103
v 0.005133 0.320541 0.093741
v 0.056844 0.369494 0.011797
v 0.103683 -0.747480 -0.000969
v 0.017815 -0.670171 0.056690
v 0.000184 -0.501294 0.054626
v -0.062071 -0.449206 0.070918
v -0.113636 -0.393296 0.033332
v -0.121152 -0.444262 0.102352
v -0.127696 -0.327062 0.059578
v -0.028562 0.158470 0.111795
v -0.053332 0.473582 -0.026130
v -0.079064 -0.752074 0.063925
v 0.020640 0.500581 0.071445
v -0.055564 0.426378 0.083107
v -0.001651 -0.742556 0.102910
v 0.075292 -0.751658 0.059694
v 0.054979 -0.668223 0.016401
v 0.019526 -0.457060 0.142201
v -0.037247 -0.199907 0.107813
v -0.047308 0.697561 0.118401
v 0.022730 -0.320936 0.115132
v 0.002627 -0.446260 0.069253
v 0.055118 -0.395945 0.084550
v -0.097576 -0.096710 0.157237
v -0.064910 0.116203 0.108651
v -0.067235 0.205850 0.090247
v 0.040386 0.134457 0.026992
v 0.033860 -0.398876 0.180043
v -0.128822 -0.248456 0.184281
v -0.069133 -0.289866 0.113571
v -0.038600 -0.392524 0.186638
v -0.140208 -0.404016 0.147232
v -0.131644 -0.335745 0.153085
v -0.046366 0.070769 0.122184
v -0.055482 -0.115763 0.206311
v -0.114372 -0.324256 0.201272
v -0.002001 -0.311654 0.165701
v -0.022582 -0.346491 0.198366
v -0.038845 -0.246563 0.232662
vn 0.2233 -0.1485 -0.9634
vn 0.5012 0.2920 -0.8146
vn 0.2047 -0.6655 -0.7178
vn 0.3125 0.0528 -0.9485
vn -0.1179 0.9727 -0.1997
vn 0.7764 -0.2254 -0.5885
vn 0.1900 -0.6527 -0.7334
vn -0.9027 -0.0768 -0.4234
vn 0.4209 0.9024 -0.0922
vn 0.2623 -0.0508 -0.9636
vn 0.3526 -0.2361 -0.9055
vn 0.4725 -0.6298 -0.6165
vn -0.1293 -0.4068 -0.9043
vn -0.6198 0.1632 -0.7676
vn -0.8147 0.5162 0.2640
vn -0.0914 0.9894 -0.1129
vn -0.3974 -0.4519 -0.7987
vn 0.8839 -0.2767 -0.3771
vn -0.4205 0.3259 -0.8468
vn -0.0039 -0.9995 -0.0325
vn -0.7522 -0.4304 -0.4989
vn -0.3665 0.3808 0.8489
vn -0.7022 0.1515 0.6957
vn 0.3849 -0.6704 0.6343
vn -0.6168 0.1599 -0.7707
vn 0.0294 0.0877 -0.9957
vn 0.2685 -0.7852 -0.5581
vn 0.5001 -0.8458 -0.1858
vn 0.7476 0.4047 -0.5267
vn -0.9327 0.0818 -0.3514
vn 0.3571 0.4165 0.8361
vn -0.5813 0.1593 -0.7980
vn 0.3962 -0.8161 -0.4207
vn -0.0435 0.1240 -0.9913
vn 0.6458 -0.3196 -0.6934
vn -0.8173 -0.0832 -0.5701
vn -0.4334 0.2881 -0.8539
vn 0.1155 -0.7502 -0.6511
vn 0.2464 0.6558 -0.7136
vn -0.5974 0.0117 -0.8019
vn 0.7909 -0.2021 -0.5775
vn -0.0087 -1.0000 0.0020
vn 0.3247 0.8066 -0.4939
vn 0.8482 -0.1251 -0.5146
vn -0.4687 -0.8150 0.3408
vn 0.7679 -0.6329 -0.0992
vn 0.9045 0.1712 0.3907
vn 0.9010 -0.0216 0.4333
vn -0.2851 0.3748 -0.8822
vn 0.1105 0.3505 -0.9300
vn 0.9952 0.0288 -0.0935
vn 0.6737 0.5025 -0.5418
vn -0.0387 0.7796 0.6250
vn 0.9592 0.1706 -0.2254
vn -0.8065 0.4091 -0.4269
vn -0.1882 0.3580 -0.9145
vn -0.4261 -0.9037 -0.0421
vn 0.6076 0.4055 -0.6830
vn 0.8994 -0.2571 0.3535
vn 0.1233 -0.0092 -0.9923
vn -0.2764 -0.2231 -0.9348
vn 0.0974 -0.9750 0.1995
vn -0.6697 -0.0664 -0.7397
vn -0.9306 -0.0808 -0.3570
vn -0.5478 -0.4145 -0.7267
vn 0.1471 0.3823 -0.9123
vn 0.8380 -0.4466 0.3134
vn -0.8591 0.0354 -0.5107
vn -0.8955 0.0915 -0.4356
vn 0.9884 0.0932 0.1203
vn 0.8250 0.4233 -0.3744
vn 0.1360 -0.0047 -0.9907
vn -0.7070 0.0083 -0.7072
vn 0.1728 -0.3960 -0.9018
vn 0.2213 -0.3584 -0.9070
vn 0.9862 0.1546 0.0599
vn 0.1922 -0.4177 -0.8880
vn 0.9129 -0.1225 -0.3894
vn -0.7334 -0.5637 -0.3800
vn 0.8873 0.3958 0.2368
vn -0.9158 0.0254 -0.4008
vn 0.9814 -0.1583 0.1082
vn 0.9615 0.2298 0.1506
vn -0.7836 0.2286 -0.5777
vn -0.7619 0.3590 -0.5392
vn 0.8307 -0.4579 -0.3166
vn 0.9979 0.0102 -0.0645
vn 0.9708 -0.0529 0.2340
vn 0.8013 0.4815 -0.3552
vn 0.8834 -0.4615 -0.0815
vn -0.9667 0.2161 -0.1371
vn -0.9667 0.2159 -0.1372
vn -0.9469 0.0017 -0.3215
vn -0.8656 -0.3866 -0.3182
vn -0.7555 0.6462 -0.1077
vn 0.9618 -0.0694 -0.2648
vn 0.8195 -0.5618 0.1134
vn 0.9066 -0.4067 -0.1126
vn -0.9907 0.0436 -0.1292
vn -0.9081 -0.1399 -0.3946
vn 0.7999 0.5461 -0.2487
vn -0.4587 0.5098 -0.7278
vn 0.9909 0.0229 0.1326
vn -0.7720 -0.4111 0.4849
vn -0.8359 0.0199 0.5486
vn -0.9714 -0.2299 0.0598
vn -0.9988 0.0475 -0.0100
vn -0.9196 -0.3911 0.0379
vn -0.7583 0.3979 0.5164
vn -0.9027 -0.1447 0.4051
vn 0.9821 0.1674 0.0868
vn 0.8146 0.4108 0.4095
vn 0.7353 -0.0499 0.6759
vn -0.7949 -0.0045 0.6067
vn -0.7941 -0.5055 0.3374
vn 0.8937 0.3730 0.2491
vn 0.8523 -0.0259 0.5224
vn 0.6284 0.4258 0.6510
vn -0.9192 -0.3668 0.1432
vn 0.9697 0.2289 0.0856
vn 0.8092 -0.4748 0.3460
vn -0.1552 0.2676 0.9510
vn 0.4513 0.0580 0.8905
vn -0.3788 0.0428 0.9245
vn -0.8702 -0.3763 0.3180
vn -0.3684 -0.7283 -0.5779
vn 0.6562 -0.5167 0.5500
vn 0.7027 -0.3308 0.6299
vn -0.9532 -0.1840 -0.2397
vn -0.8073 0.4150 0.4196
vn -0.7495 -0.3588 0.5563
vn -0.9995 0.0313 -0.0069
vn 0.9418 0.2808 0.1848
vn -0.7712 0.3597 -0.5252
vn -0.2062 -0.0096 0.9785
vn -0.3126 -0.6032 0.7338
vn 0.5958 -0.2309 0.7692
vn 0.4484 -0.6533 0.6101
vn -0.9654 -0.1115 -0.2357
vn 0.4816 0.3165 0.8172
vn -0.5683 -0.8039 0.1754
vn -0.9986 0.0529 0.0025
vn 0.4695 0.4940 0.7318
vn -0.4254 0.5655 0.7066
vn 0.0366 -0.2582 0.9654
vn 0.4079 -0.2824 0.8683
vn -0.3687 -0.4127 0.8329
vn 0.3973 -0.4469 0.8015
vn 0.7089 0.2342 0.6653
vn 0.7065 -0.6577 -0.2611
vn -0.7427 0.3015 0.5979
vn 0.2746 -0.1323 0.9524
vn 0.4522 0.2754 0.8483
vn -0.7588 0.6511 0.0189
vn 0.7609 -0.0865 0.6431
vn -0.1080 0.0379 0.9934
vn -0.0881 -0.9961 -0.0089
vn 0.0409 -0.9870 -0.1556
vn 0.9161 -0.3513 0.1932
vn 0.4600 -0.1576 0.8738
vn 0.8496 0.0507 0.5249
vn -0.8682 0.3409 0.3606
vn -0.9312 -0.3539 0.0877
vn -0.9915 0.1269 -0.0301
vn 0.0041 0.0624 0.9980
vn -0.3133 0.1692 0.9344
vn 0.9254 0.3117 0.2156
vn 0.3206 0.9471 -0.0170
vn -0.0452 0.8449 -0.5330
vn 0.5787 -0.5641 0.5890
vn 0.7625 -0.0787 0.6422
vn -0.2776 0.1684 0.9458
vn 0.0278 -0.5498 0.8348
vn 0.8485 0.4049 0.3407
vn 0.1835 0.9079 -0.3768
vn 0.5514 0.7291 -0.4054
vn -0.2541 -0.6932 0.6744
vn -0.1546 -0.7673 0.6224
vn -0.9982 0.0458 -0.0379
vn -0.6443 0.3404 0.6848
vn -0.3579 -0.0351 0.9331
vn 0.5921 0.3071 0.7451
vn 0.5709 0.3563 0.7397
vn -0.9293 -0.0973 0.3563
vn 0.0641 -0.2673 0.9615
vn -0.5778 -0.7226 0.3794
vn 0.8614 -0.0337 0.5068
vn 0.1630 -0.2965 0.9410
vn -0.4726 0.1060 0.8749
vn -0.0865 -0.2997 0.9501
vt 0.939244 0.265610
vt 0.931872 0.161132
vt 0.998119 0.156621
vt 0.987444 0.200812
vt 0.862952 0.177339
vt 0.998119 0.309783
vt 0.235139 0.146739
vt 0.154222 0.110541
vt 0.182120 0.044955
vt 0.916526 0.303172
vt 0.864193 0.267935
vt 0.273112 0.132905
vt 0.230625 0.030138
vt 0.338977 0.131815
vt 0.124530 0.096909
vt 0.817532 0.164935
vt 0.817826 0.278257
vt 0.751716 0.549504
vt 0.738776 0.582510
vt 0.809112 0.572841
vt 0.915670 0.969568
vt 0.959285 0.987648
vt 0.972536 0.956049
vt 0.338977 0.038479
vt 0.206318 0.052083
vt 0.839270 0.510375
vt 0.667499 0.910235
vt 0.746422 0.937128
vt 0.752247 0.863232
vt 0.620391 0.510375
vt 0.463012 0.160573
vt 0.384123 0.111756
vt 0.485395 0.140008
vt 0.917085 0.906860
vt 0.846216 0.977240
vt 0.054772 0.303471
vt 0.095184 0.261819
vt 0.095184 0.404644
vt 0.080763 0.262020
vt 0.148386 0.710121
vt 0.062829 0.691487
vt 0.135497 0.718340
vt 0.842994 0.893865
vt 0.835591 0.946792
vt 0.188982 0.708229
vt 0.148761 0.691206
vt 0.872538 0.835490
vt 0.967701 0.895855
vt 0.018891 0.181324
vt 0.459368 0.435744
vt 0.552164 0.372896
vt 0.520571 0.330534
vt 0.160872 0.806818
vt 0.742491 0.154644
vt 0.657261 0.139782
vt 0.847630 0.097332
vt 0.621504 0.865596
vt 0.536685 0.909038
vt 0.891630 0.843379
vt 0.249436 0.691206
vt 0.235139 0.012352
vt 0.923627 0.558629
vt 0.451408 0.071912
vt 0.712264 0.984684
vt 0.683597 0.946146
vt 0.763356 0.946146
vt 0.705697 0.097332
vt 0.503141 0.085200
vt 0.333659 0.991420
vt 0.274786 0.892201
vt 0.279658 0.974103
vt 0.336305 0.903658
vt 0.411607 0.999506
vt 0.683329 0.373528
vt 0.600530 0.280786
vt 0.549412 0.182312
vt 0.529412 0.260315
vt 0.235741 0.959888
vt 0.368493 0.861377
vt 0.370471 0.937306
vt 0.013168 0.321454
vt 0.435641 0.888387
vt 0.407827 0.941205
vt 0.541160 0.492448
vt 0.536835 0.309475
vt 0.535365 0.051877
vt 0.601952 0.740435
vt 0.408535 0.969566
vt 0.562501 0.852958
vt 0.701642 0.281222
vt 0.602288 0.232951
vt 0.747057 0.251159
vt 0.791949 0.350331
vt 0.400051 0.051877
vt 0.971162 0.843379
vt 0.656160 0.390325
vt 0.706637 0.521245
vt 0.746934 0.407637
vt 0.406697 0.206208
vt 0.238099 0.900103
vt 0.953830 0.710139
vt 0.704521 0.214249
vt 0.718686 0.350664
vt 0.746954 0.182312
vt 0.262054 0.827047
vt 0.115203 0.895055
vt 0.194392 0.885488
vt 0.107763 0.849491
vt 0.386894 0.755961
vt 0.934979 0.476036
vt 0.818166 0.330534
vt 0.769545 0.726560
vt 0.946200 0.384205
vt 0.130628 0.363882
vt 0.206268 0.474802
vt 0.231267 0.386947
vt 0.074942 0.904487
vt 0.078478 0.864401
vt 0.000376 0.862065
vt 0.296785 0.523080
vt 0.272447 0.666502
vt 0.342212 0.619060
vt 0.190940 0.611364
vt 0.715199 0.640888
vt 0.585469 0.555073
vt 0.561016 0.626892
vt 0.517080 0.515001
vt 0.217088 0.832466
vt 0.113481 0.498728
vt 0.000376 0.622659
vt 0.642582 0.354249
vt 0.595307 0.506242
vt 0.416868 0.520833
vt 0.398246 0.561590
vt 0.470722 0.548994
vt 0.341031 0.536547
vt 0.462378 0.371513
vt 0.405826 0.312533
vt 0.291051 0.782288
vt 0.075755 0.840586
vt 0.103129 0.817985
vt 0.382512 0.493019
vt 0.724197 0.645139
vt 0.803879 0.598289
vt 0.196880 0.495108
vt 0.124407 0.445158
vt 0.860712 0.662025
vt 0.189989 0.134881
vt 0.247584 0.209121
vt 0.251751 0.156202
vt 0.353754 0.186805
vt 0.387284 0.252470
vt 0.349708 0.138643
vt 0.345926 0.465968
vt 0.242706 0.766932
vt 0.321396 0.445158
vt 0.439887 0.283794
vt 0.097442 0.249506
vt 0.267523 0.299682
vt 0.999624 0.585474
vt 0.387235 0.134881
vt 0.389391 0.184457
vt 0.843115 0.019269
vt 0.852969 0.091889
vt 0.890652 0.055011
vt 0.361575 0.672709
vt 0.072477 0.802897
vt 0.191705 0.208014
vt 0.044018 0.141038
vt 0.908297 0.113428
vt 0.254922 0.476187
vt 0.283543 0.717839
vt 0.975031 0.512241
vt 0.981565 0.557806
vt 0.921369 0.515039
vt 0.608877 0.638125
vt 0.335657 0.249506
vt 0.925133 0.025938
vt 0.967269 0.019269
vt 0.883589 0.162549
vt 0.415679 0.585474
vt 0.001838 0.494134
vt 0.981565 0.470850
vt 0.284799 0.457335
vt 0.044018 0.746542
vt 0.044018 0.633893
vt 0.000376 0.689404
vt 0.134317 0.918478
vt 0.166031 0.994694
vt 0.190745 0.918478
vt 0.070892 0.074316
vt 0.064521 0.002679
vt 0.098947 0.000494
vt 0.008458 0.098784
vt 0.098947 0.135870
vt 0.549607 0.629971
vt 0.964662 0.341403
vt 0.937923 0.317688
vt 0.995109 0.317688
vt 0.601377 0.165776
vt 0.653499 0.209477
vt 0.608477 0.225791
vt 0.111575 0.956844
vt 0.001129 0.012411
vt 0.653499 0.081767
vt 0.616762 0.072628
vt 0.454853 0.402668
vt 0.361550 0.402668
vt 0.408704 0.450743
vt 0.574064 0.076647
vt 0.117857 0.997530
vt 0.439876 0.465909
vt 0.570718 0.178759
vt 0.554594 0.100658
vt 0.051543 0.988605
vt 0.500752 0.165853
vt 0.512968 0.079970
s 0
usemtl Material_0
f 3/1/1 2/2/1 4/3/1
f 4/3/2 1/4/2 3/1/2
f 2/2/3 3/1/3 7/5/3
f 1/4/4 11/6/4 3/1/4
f 11/7/5 1/8/5 13/9/5
f 11/6/6 24/10/6 3/1/6
f 7/5/7 3/1/7 6/11/7
f 2/12/8 10/13/8 4/14/8
f 1/8/9 4/15/9 13/9/9
f 6/11/10 5/16/10 7/5/10
f 5/16/11 6/11/11 30/17/11
f 3/1/12 24/10/12 6/11/12
f 38/18/13 9/19/13 17/20/13
f 7/21/14 5/22/14 21/23/14
f 13/24/15 4/14/15 10/13/15
f 16/25/16 11/7/16 13/9/16
f 38/18/17 17/20/17 19/26/17
f 17/27/18 9/28/18 8/29/18
f 15/30/19 9/19/19 38/18/19
f 5/31/20 30/32/20 21/33/20
f 7/21/21 10/34/21 2/35/21
f 12/36/22 13/37/22 10/38/22
f 12/36/23 14/39/23 13/37/23
f 14/40/24 11/41/24 16/42/24
f 10/34/25 7/21/25 21/23/25
f 18/43/26 12/44/26 10/34/26
f 18/45/27 13/46/27 14/40/27
f 14/40/28 16/42/28 18/45/28
f 15/47/29 8/29/29 9/28/29
f 10/34/30 21/23/30 23/48/30
f 14/39/31 12/36/31 11/49/31
f 26/50/32 25/51/32 13/52/32
f 35/53/33 18/45/33 16/42/33
f 20/54/34 22/55/34 25/56/34
f 22/57/35 20/58/35 17/27/35
f 23/48/36 26/59/36 10/34/36
f 10/34/37 26/59/37 18/43/37
f 18/45/38 26/60/38 13/46/38
f 37/61/39 16/25/39 13/9/39
f 19/26/40 17/20/40 20/62/40
f 17/27/41 8/29/41 22/57/41
f 30/32/42 34/63/42 21/33/42
f 12/64/43 18/65/43 35/66/43
f 25/56/44 22/55/44 29/67/44
f 23/68/45 21/33/45 34/63/45
f 24/69/46 47/70/46 6/71/46
f 41/72/47 47/70/47 24/69/47
f 11/73/48 41/72/48 24/69/48
f 25/51/49 29/74/49 13/52/49
f 49/75/50 42/76/50 27/77/50
f 47/70/51 30/78/51 6/71/51
f 35/79/52 41/72/52 12/80/52
f 12/36/53 41/81/53 11/49/53
f 37/82/54 35/79/54 16/83/54
f 26/50/55 43/84/55 25/51/55
f 49/75/56 27/77/56 44/85/56
f 34/63/57 28/86/57 23/68/57
f 83/87/58 37/82/58 13/88/58
f 29/89/59 83/87/59 13/88/59
f 49/75/60 33/90/60 36/91/60
f 34/92/61 33/90/61 28/93/61
f 34/63/62 30/32/62 31/94/62
f 26/59/63 23/48/63 28/95/63
f 20/96/64 48/97/64 19/98/64
f 44/85/65 27/77/65 40/99/65
f 42/76/66 49/75/66 36/91/66
f 30/78/67 47/70/67 31/100/67
f 25/51/68 43/84/68 20/96/68
f 43/84/69 48/97/69 20/96/69
f 83/87/70 29/89/70 22/57/70
f 15/47/71 39/101/71 8/29/71
f 36/91/72 33/90/72 32/102/72
f 53/103/73 33/90/73 49/75/73
f 33/90/74 34/92/74 32/102/74
f 32/102/75 34/92/75 31/104/75
f 46/105/76 41/72/76 35/79/76
f 40/99/77 27/77/77 42/76/77
f 36/106/78 32/107/78 73/108/78
f 33/90/79 53/103/79 28/93/79
f 50/109/80 35/79/80 37/82/80
f 19/98/81 67/110/81 38/111/81
f 22/57/82 8/29/82 83/87/82
f 39/101/83 58/112/83 8/29/83
f 38/111/84 67/110/84 15/113/84
f 39/114/85 15/115/85 67/116/85
f 42/117/86 59/118/86 40/119/86
f 41/72/87 46/105/87 47/70/87
f 8/29/88 58/112/88 83/87/88
f 59/118/89 42/117/89 36/106/89
f 31/100/90 46/105/90 32/107/90
f 65/120/91 26/121/91 28/122/91
f 26/121/92 65/120/92 43/123/92
f 67/110/93 19/98/93 48/97/93
f 40/124/94 51/125/94 44/126/94
f 54/127/95 44/126/95 51/125/95
f 45/128/96 73/108/96 32/107/96
f 45/128/97 32/107/97 46/105/97
f 46/105/98 31/100/98 47/70/98
f 80/129/99 48/130/99 43/123/99
f 52/131/100 53/103/100 49/75/100
f 36/106/101 73/108/101 59/118/101
f 49/75/102 44/85/102 52/131/102
f 37/82/103 83/87/103 50/109/103
f 40/124/104 68/132/104 51/125/104
f 55/133/105 53/134/105 52/135/105
f 28/122/106 63/136/106 65/120/106
f 67/116/107 48/137/107 82/138/107
f 63/136/108 28/122/108 53/134/108
f 54/127/109 51/125/109 68/132/109
f 44/126/110 54/127/110 52/135/110
f 46/105/111 35/79/111 56/139/111
f 72/140/112 59/118/112 73/108/112
f 60/141/113 73/108/113 45/128/113
f 54/127/114 55/133/114 52/135/114
f 53/134/115 62/142/115 63/136/115
f 50/109/116 56/139/116 35/79/116
f 83/87/117 58/112/117 57/143/117
f 57/143/118 58/112/118 70/144/118
f 43/123/119 75/145/119 91/146/119
f 39/101/120 69/147/120 58/112/120
f 72/140/121 40/119/121 59/118/121
f 68/148/122 60/149/122 54/150/122
f 61/151/123 60/149/123 45/152/123
f 55/153/124 54/150/124 61/151/124
f 55/133/125 62/142/125 53/134/125
f 62/142/126 64/154/126 63/136/126
f 46/105/127 79/155/127 45/128/127
f 56/139/128 79/155/128 46/105/128
f 64/154/129 88/156/129 63/136/129
f 75/145/130 43/123/130 65/120/130
f 82/138/131 48/137/131 66/157/131
f 76/158/132 67/116/132 70/159/132
f 39/101/133 76/160/133 69/147/133
f 67/116/134 76/158/134 39/114/134
f 54/150/135 60/149/135 61/151/135
f 61/151/136 62/161/136 55/153/136
f 61/151/137 45/152/137 78/162/137
f 45/163/138 79/164/138 78/165/138
f 65/120/139 63/136/139 88/156/139
f 50/109/140 75/166/140 56/139/140
f 91/146/141 80/129/141 43/123/141
f 70/159/142 67/116/142 82/138/142
f 73/108/143 71/167/143 72/140/143
f 60/149/144 68/148/144 71/168/144
f 62/161/145 61/151/145 78/162/145
f 58/112/146 69/147/146 70/144/146
f 68/148/147 40/169/147 71/168/147
f 40/119/148 72/140/148 71/167/148
f 60/141/149 71/167/149 73/108/149
f 79/164/150 74/170/150 78/165/150
f 65/120/151 86/171/151 75/145/151
f 69/147/152 76/160/152 70/144/152
f 75/166/153 77/172/153 56/139/153
f 81/173/154 66/174/154 48/175/154
f 83/87/155 57/143/155 66/176/155
f 57/177/156 70/159/156 82/138/156
f 62/178/157 74/170/157 64/179/157
f 78/165/158 74/170/158 62/178/158
f 79/164/159 84/180/159 74/170/159
f 56/139/160 77/172/160 79/155/160
f 50/109/161 83/87/161 91/181/161
f 48/130/162 80/129/162 90/182/162
f 81/173/163 48/175/163 90/183/163
f 65/120/164 88/156/164 89/184/164
f 77/185/165 75/186/165 86/187/165
f 57/177/166 82/138/166 66/157/166
f 77/188/167 84/189/167 79/190/167
f 86/191/168 93/192/168 77/193/168
f 85/194/169 86/191/169 65/195/169
f 50/109/170 91/181/170 75/166/170
f 83/87/171 66/176/171 90/196/171
f 81/197/172 90/198/172 66/199/172
f 87/200/173 74/201/173 84/202/173
f 77/188/174 93/203/174 84/189/174
f 85/194/175 95/204/175 86/191/175
f 95/204/176 93/192/176 86/191/176
f 87/200/177 64/205/177 74/201/177
f 64/205/178 87/200/178 88/206/178
f 85/207/179 65/208/179 89/209/179
f 91/146/180 90/182/180 80/129/180
f 88/206/181 87/200/181 89/210/181
f 83/87/182 90/196/182 91/181/182
f 94/211/183 84/189/183 93/203/183
f 92/212/184 85/207/184 89/209/184
f 94/213/185 87/200/185 84/202/185
f 87/200/186 92/214/186 89/210/186
f 94/211/187 93/203/187 95/215/187
f 94/213/188 95/216/188 87/200/188
f 92/214/189 95/216/189 85/217/189
f 92/214/190 87/200/190 95/216/190
